<svg xmlns="http://www.w3.org/2000/svg" viewBox="0 0 236.31 209.79" aria-hidden="true">
  <defs>
    <linearGradient id="apple-bird-gradient-1" x1="225.01" y1="-269.5" x2="15.3" y2="-172.63" gradientTransform="translate(12.7 286.47) scale(.93)" gradientUnits="userSpaceOnUse">
      <stop offset="0" stop-color="#baa2cc"/>
      <stop offset=".49" stop-color="#9b8cc3"/>
      <stop offset=".82" stop-color="#6b6bb1"/>
      <stop offset="1" stop-color="#716bb0"/>
    </linearGradient>
    <linearGradient id="apple-bird-gradient-2" x1="193.13" y1="-182.99" x2="46.62" y2="-132.41" gradientTransform="translate(12.7 286.47) scale(.93)" gradientUnits="userSpaceOnUse">
      <stop offset="0" stop-color="#9f91c4"/>
      <stop offset=".34" stop-color="#9c8dc3"/>
      <stop offset="1" stop-color="#546bb2"/>
    </linearGradient>
  </defs>
  <path d="M59.98,121.94c-.88,1.75-.66,3.97-1.42,6.2-3.26,9.63-2.78,19.86,2.51,28.16l1.71,19.52-2.79,4.02c-10.37-9.36-19.78-20.36-25.17-33.85-3.53-8.84-5.78-18.5-4.77-27.89l1.67-15.57c-4.46-5.72-10.83-10.55-17.95-11.96l-13.77-2.72c2.8-3.3,6.67-3.77,9.79-5.84,4.57-3.02,8.68-6.66,14.21-8.12,6.16-1.63,12.36-.52,18.92-.46,17.73-36.64,52.08-52.3,90.03-62.3C158.77,4.34,184.65,1.48,211.25,0l25.07.12c-18.07,3.42-35.72,6.58-53.38,12.56-21.24,7.19-41.22,15.35-59.89,27.79-31.55,21.02-50.86,43.19-63.27,79.41-.15.44-.64,1.13-.74,1.49-.07.25.33.68.95.57Z" fill="url(#apple-bird-gradient-1)"/>
  <path d="M59.99,179.85l2.79-4.02-1.71-19.52c-5.29-8.31-5.77-18.53-2.51-28.16.75-2.23.54-4.44,1.42-6.2,12.84-25.65,32.74-41.41,62.58-42.77,8.59-.39,16.88-.69,25.51.15,21.38,2.1,42.11,5.82,62.22,13.28l-21.79-1.68c-20.73-1.6-47.43.16-67.04,5.92-21.95,6.46-37.8,18.94-44.7,41.24-5.61,29.14,8.99,51.22,30.11,71.72-15.67-6.45-28.86-15.28-41.66-25.22l-5.23-4.72Z" fill="url(#apple-bird-gradient-2)"/>
</svg>
